# xmcd
#
# Track frame offsets:
#	150
#	12294
#	26311
#	40098
#	56003
#	73338
#	97306
#	118865
#	138557
#	155922
#	171452
#	194209
#
# Disc length: 2756 seconds
#
# Revision: 0
# Processed by: cddbd v1.5.2PL0 Copyright (c) Steve Scherf et al.
# Submitted via: EZCDAudioConverter 2.4.0.1
#
DISCID=bc0ac20c
DTITLE=Vollek! - Blues veur joe
DYEAR=1900
DGENRE=
TTITLE0=Billie
TTITLE1=Wonderboar vannacht
TTITLE2=Diekschoap
TTITLE3=Haarst
TTITLE4=In de noaberschop
TTITLE5=Duutse traain
TTITLE6=t Wotter
TTITLE7=Blues veur joe
TTITLE8=Kom hiermien laif
TTITLE9=Spiekerboksemblues
TTITLE10=Duvelse blues
TTITLE11=Dou t mor over
EXTD=
EXTT0=
EXTT1=
EXTT2=
EXTT3=
EXTT4=
EXTT5=
EXTT6=
EXTT7=
EXTT8=
EXTT9=
EXTT10=
EXTT11=
PLAYORDER=
